<?xml version="1.0" encoding="UTF-8"?>
<svg xmlns="http://www.w3.org/2000/svg" viewBox="0 0 880 260" width="880" height="260">
  <!-- McCaulley Deck Co. lockup for dark/charcoal backgrounds -->
  <g transform="translate(275 130) scale(0.27) rotate(-45)" fill="#D29A55">
    <path d="M-144 -160 h288 a16 16 0 0 1 16 16 v36 h-320 v-36 a16 16 0 0 1 16 -16 z"/>
    <rect x="-160" y="-88" width="320" height="52"/>
    <rect x="-160" y="-16" width="320" height="52"/>
    <rect x="-160" y="56" width="320" height="52"/>
    <path d="M-160 128 h320 v16 a16 16 0 0 1 -16 16 h-288 a16 16 0 0 1 -16 -16 v-16 z"/>
  </g>
  <text x="356" y="144" font-family="'Helvetica Neue', Helvetica, Arial, sans-serif" font-weight="700" font-size="68" letter-spacing="-1.5" fill="#F3F1EA">McCaulley</text>
  <text x="360" y="168" font-family="'Helvetica Neue', Helvetica, Arial, sans-serif" font-weight="600" font-size="17" letter-spacing="10" fill="#D29A55">DECK CO.</text>
</svg>
